# xmcd
#
# Track frame offsets:
#	182
#	12990
#	28102
#	41975
#	55197
#	66300
#	78330
#	93275
#	107822
#	120715
#	133360
#	145070
#
# Disc length: 2086
#
# Revision: 1
# Processed by: cddbd v1.5.1PL0 Copyright (c) Steve Scherf et al.
# Submitted via: CDex 1.51
# Normalized: r0:DSETVAR1,TDELIM( - )
#
DISCID=ab08240c
DTITLE=Various Artist - Swing Out Again
DYEAR=1900
DGENRE=Jazz
TTITLE0=Glenn Miller - Solo Hop
TTITLE1=Chick Webb - Strictly Jive
TTITLE2=Teddy Powell - Flea on a Spree
TTITLE3=Wingy Mannone - The Flat Foot Floogie
TTITLE4=Jimmy Dorsey - The Darktown Strutters Ball
TTITLE5=Louis Jordan - Keep A-Knockin
TTITLE6=Ziggy Elman - And The Angles Sing
TTITLE7=Count Basie - Dont You Miss Your Baby
TTITLE8=Freddie Jenkins - Swinging em Down
TTITLE9=Jimmy Lunceford - Miss Otis Regrets
TTITLE10=Jimmy Dorsey - Dusk in Upper Sandusky
TTITLE11=Glenn Miller - In a Little Spanish Town
EXTD=
EXTT0=
EXTT1=
EXTT2=
EXTT3=
EXTT4=
EXTT5=
EXTT6=
EXTT7=
EXTT8=
EXTT9=
EXTT10=
EXTT11=
PLAYORDER=
